<?xml version="1.0" encoding="UTF-8"?>
<svg id="_图层_2" data-name="图层 2" xmlns="http://www.w3.org/2000/svg" viewBox="0 0 141.7323 55.6452">
  <defs>
    <style>
      .cls-1, .cls-2 {
        fill: #b69758;
        stroke-width: 0px;
      }

      .cls-2 {
        fill-rule: evenodd;
      }
    </style>
  </defs>
  <g id="_图层_1-2" data-name="图层 1">
    <g>
      <g>
        <path class="cls-2" d="M11.5881,31.0473c-1.3003.5926-2.5973,2.0372-2.8198,3.1518-.1107,1.8169,1.4099,2.4475,2.8198,3.0411.3332-.0749.5557-.0749.8161-.5188.4439-1.6323.9269-2.5592,1.9656-3.7835,0-.1128,0-.2235.0358-.3342-.3712-1.9298-1.5933-2.1143-2.8175-1.5564Z"/>
        <path class="cls-2" d="M5.5037,28.5934c-1.704-.9269-.7033-6.1886-.5188-7.6006.5188-1.3719,1.0387-3.523.9638-4.8579-1.1483-2.0773-1.705-1.8907-3.3005-.89C-.1324,18.9165.089,22.5524.1628,27.483c.2974,2.4117.2974,6.7518,2.7448,8.3093,2.2944-.4059,4.2665-5.0816,4.1178-7.6027-.5199-.966-.6664.3679-1.5217.4038Z"/>
        <path class="cls-2" d="M20.7841,22.2919c.2973-.1107.7434-.2604,1.1515-.4819.89-.4059,1.6682-1.0745.6317-2.1153-.1867-.0358-.4092-.0358-.6317-.0358-1.5954.0358-4.3772,1.1505-4.4879-1.2622.852-1.2981,2.67-3.447,2.8186-4.9692-1.2242-.4081-1.1124-.668-1.0766-1.8174.1551-.0804.2257-.1329.3245-.2377.852-.5192,1.6432-1.47,2.4214-2.5065.5568-.705,1.0745-1.4474,1.5944-2.0768,1.0755-2.8197,0-3.9343-1.5944-4.2295-1.2601-.2584-2.9304.0369-4.0429.3353-.5557.2952-2.5972,1.2232-2.5592,1.6693-.407.2963-.6035.4189-.7055.5926-.89,1.781-.0738,2.1522,1.7072,2.2618.7511-.2919,2.5213-2.8935,3.6348-1.4836,0,.2225-.1866.4819-.1476.7054-.0749,0,.0359,0,0,0-.446,1.188-2.6721,3.262-3.3385,4.0044-.7054,1.521.3712,2.8202.4439,4.637-.1107.4081-.2604.8162-.3701,1.2612-1.0397,1.1483-1.8179,3.0042-3.0422,3.9311-.3712.5958-1.4467,1.4489-1.5943,1.9677-.1108.1107-.2247.1845-.3332.2952-1.0756.966-2.0405,2.1143-3.0043,3.0412,0,.1117.038.2235.038.2973.6284.4819,1.8516.8531,2.9663.9638h.5557c.0781-.0141.2301.0077.2301-.0292.0749-.037.0152-.1118-.0087-.1564,0-.1118,0-.2225.039-.2963,1.1483-1.3718,1.7789-2.5223,3.6338-2.709-.0738.2258.0379,1.9298.2973,10.201-.1378.14-.0369.1455-.8172.4407-.0489.0098-.0934.025-.1466.0402-.3711.2615-.7434.5958-.8172,1.1884.1563.013.038,0,0,0,.1856,2.0784.4092,3.6359,2.2629,5.0816,1.4457-.2225,2.1121-1.9645,2.5951-3.4124q.0369-1.8928-.0717-14.2797c.4819-.2974.9617-.5557,1.4436-.8162Z"/>
        <path class="cls-2" d="M22.195,27.5959c-.0738.0391-.1476.0738-.2594.1107-.8162.521-1.4478,1.7062-.2974,2.5592.5568,2.0774-1.0007,2.5973-1.6682,4.1547.038.0738.038.1845.1118.2974.2204.0369.4819.0727.7023.1465.3353-.0738.7434-.1465,1.1515-.2594,2.0773-.5188,4.934-1.4087,4.489-4.2262-1.0767-2.2629-2.263-2.9315-4.2296-2.7828Z"/>
        <path class="cls-2" d="M3.688,12.7595c1.4825-.1476,1.8157-.1476,2.8924-1.1494.0651-.1058.0683-.0678.102-.1058.0369,0,.0249-.0542.0478-.0955.0369-1.8912-.6708-3.1622-1.0398-3.5067-3.5621-1.7446-5.9345,2.9656-2.0024,4.8574Z"/>
        <path class="cls-2" d="M10.5125,14.2442c.1736.0369.394.0043.5947-.0738.1824-.1497.3322-.2974.4809-.484.9268-1.2237,1.6312-3.3744,1.0017-4.6723-.3343-.185-.7065-.2231-1.0017-.185-2.0405.185-3.6359,4.006-1.0756,5.4152Z"/>
        <path class="cls-2" d="M48.4188,25.5196c-.038.0359-.0076.0717-.0162.1466-.928.7782-2.0611,2.9325-3.0997,3.0802-.2605-2.4844.2236-4.9698.3701-7.2685.6686-1.3371,1.0376-1.3371,2.4116-1.9666.8162-.483,1.1885-.8911,1.5206-1.7811v-.4819c-.1118-2.0404-.7413-2.4116-2.3747-2.672-.2584-1.4441-.1476-2.7807-.2215-4.0788-.9648-1.0391-2.6341.2588-3.116,1.1494-1.8548,1.4468-.5926,3.3765-.8151,5.7122-.9279.6664-2.2249,1.5216-3.0422,2.3356-1.0386,2.302-.5936,2.6363,1.5586,3.5241.2963,1.1505-.4439,4.0429-.5948,4.9709.0727,1.7051-.1856,4.8211,1.7051,6.0094,2.3378-.5948,6.9375-6.1213,6.7887-9.0527-.445-.0727-.7413.1867-1.0745.3733Z"/>
        <path class="cls-2" d="M50.9021,16.9141c.0749,3.04.038,5.9703-.2594,9.1612-.2974,1.0007-.9269,2.4106-1.0376,3.7477-.0391.2214-.0391.4081,0,.6295.0369.3343.1107.6664.2583.9638.8314-.064,1.781-.5188,2.5961-1.6324,1.5966-3.6727,2.1164-9.197,1.7832-13.2041-1.0039-2.5962-2.5603-1.335-3.3406.3343Z"/>
        <path class="cls-2" d="M62.5845,7.6779c-1.2232-.4819-1.7789-.0369-2.6689.5216-.0358.2214-.0738.4819-.0738.7402.2963,9.6806.5568,19.6939.0738,29.5237-.2594.9269-.4808,1.4109.5188,2.1143,2.3009-.2225,2.7101-1.1874,3.1171-3.6338.0358-2.1891-.0629-10.5081.0727-10.608-.1237-.7477-.0531-3.7074,0-3.8573q.038-8.1237-.0369-13.5758c-.3701-.668-.5926-.9286-1.0028-1.2249Z"/>
        <path class="cls-2" d="M58.6915,15.8027c-1.8907-.7793-2.1132,2.2977-2.632,3.5968-.2236,1.6313-1.7832,7.2315.7044,8.4189.5546-.0358.8509-.2605,1.335-.5948,1.1873-3.2994,1.0755-7.3422,1.2633-10.7545-.1509-.2214-.56-.5188-.6707-.6664Z"/>
        <path class="cls-2" d="M100.4496,32.6948c0-.0738-.1813-.0542-.1813-.0911-.1758-.1086-.0749-.0521-.1075-.0836-.0618-.0619-.2333-.0988-.2333-.1726-.3864-.1107-1.2926-1.0202-1.7388-1.2808,0-.0748-.3169-.1693-.3169-.2453-.5481-.2647-.7358-.6295-.9942-.8758-.2647-.1662-.3321-.1965-.5763-.4527-.5286-.3299-.763-.6881-.9171-.8769-.1325-.1064-.1574-.1683-.1954-.1683-.4461-.6295-.9269-1.1863-1.4098-1.7062-.5547-.6305-1.1125-1.2221-1.5575-1.9644-1.1863-.1867-1.857.2963-1.7431,1.6312.5948,2.0036,1.819,4.0809,3.3006,5.8978,1.5943,1.9286,3.485,3.5968,5.3766,4.6735,1.8918-.0739,3.6001.1117,5.0447-1.4848.0239-.2583.1107-.5763-.0738-.8162-1.2612-.8878-2.5245-1.4651-3.6771-1.9839Z"/>
        <path class="cls-2" d="M93.7792,18.5464c1.8537-.7814,3.7455-1.5195,3.2647-4.3413-.8531-1.259-1.2623-1.5195-2.3748-1.7045-.3332.147-.6305.2952-.8899.4456-.8911.4813-1.2992.7402-1.4067.7402-.0401-1.5944-.0401-2.9678-.2995-4.3751-.7782-1.9677-.89-2.3009-2.5213-2.2629-1.4098.2952-2.7828,1.633-.6685,2.6704.9279.852.5188,4.4146-.1107,5.3046-1.8918.9638-3.8595,1.9297-5.6753,2.9673-.814.9258-1.1537,1.6106-1.1494,2.7817.444,2.7069,2.0394.89,3.9312,1.4457.2235.2974-.1487,1.9993-.2963,2.1881-.1856.7402-1.4718,3.5305-1.78,3.8562-.6306,2.1164-3.7846,4.4521-5.4169,5.4528-.1476.2235-.3343.4471-.4439.6674.1096,1.2623,1.1515,1.818,2.4127,2.0394,1.2969-.1086,2.111-.1086,3.1875-1.0745,1.9666-2.9283,3.9864-6.1864,5.2096-9.5986.038-.0934.0315-.1574.0804-.1965.6685-2.0752,1.9047-4.5214,3.1659-6.1158.521-.3712,1.1526-.6317,1.7811-.89Z"/>
        <path class="cls-2" d="M125.8236,14.4655c.4091-.0738.7054-.1845.9659-.369.2974-.2236.5568-.5578.7814-1.0028.5167-2.5582.8879-4.9703,1.2221-7.4931-.0369-.9996-.1856-1.6682-.5578-2.5202-.8151-.2974-1.1863-.2257-1.4457.1476-.1498.2225-.2963.5568-.4819.9649-.5557,2.0762-1.0397,4.4145-1.4088,6.6747-.038,1.2981-.446,2.7464.9248,3.5979Z"/>
        <path class="cls-2" d="M130.943,11.4977c.038.4456-.0651,1.418-.1813,1.6742,0,.2848-.2865.6078-.4862.788-.1194.1107-.5621.7792-.6229.8639-.7793.852-1.0202.5905-1.9471,1.2568-.2594.2246-.6859.4949-.9431.7163-1.0376.8183-1.9374,1.3035-3.3471,1.933h0c-.3723.1486-.7446.5209-1.1505.6696-.0749.5937.4819.6664,1.1505.5937.5557-.0749,1.1493-.2583,1.4098-.3343.6675-.2594,1.2981-.521,1.9645-.7782,1.4457-.5937,2.9695-1.1157,4.4867-1.4109.8813-.165,2.8436-.6426,4.1612-.7424.7402-.0542.9475.1649,1.4532.2431.7044,1.2981-1.2221,2.5235-1.9656,2.8946,0,.3343.4819.445.966.5557,2.112-.1486,5.2486-.4526,5.8412-3.4177,0-2.8945-1.9112-3.2581-3.7292-3.4795-.3993.0245-1.5726.0755-3.1279.2876-.7597.1041-2.4756.6154-2.5603.4699.3364-.5188,1.3013-1.1135,1.7441-1.5216.1856-1.1863-.5937-1.2981-1.0397-1.8918-.406-2.2249,2.0046-1.5948,2.8935-2.7806-.1042-.6892-.7109-1.0604-1.2915-1.3469-.4516-.2247-.865-.4288-1.1559-.508.1846-.9648,1.0756-1.0755,1.9287-1.298,1.2253-.9269.445-3.4872-.1118-4.5248-.9649-.4819-2.7035-.7424-3.039.407.0836-.0011.0359,0,0,0,.1466,1.0397.4081,2.0025.0359,3.1529-.3343.1845-.5807.128-.9161.2757-.1487.1117-.42.4667-.6056.5394-.2344,1.0745.0076,1.9417-.1856,2.4507-.1139.1585-.2409.3256-.3712.5036-.5958.8064-1.2763,1.7881-1.1862,2.9445.4428.7782,1.2611.1124,1.9286.8145Z"/>
        <path class="cls-2" d="M122.5621,14.6891c.2594-.0369.5546-.0369.8531-.1128.2583-.0348.5177-.1455.7402-.3712,0-.9253-.4819-1.4093-.7402-2.1132l-.0391-.0375c-.2225-1.1125-.1834-1.9291.0391-2.7062.2225-.9274.6306-1.7811,1.0745-2.8567.0748-1.1862-.0369-1.7799-.7782-2.1891-.1118,0-.2225,0-.2963.038-1.4479.1476-1.7073.6317-2.4127,1.9655-.2214.5937-.4841,1.335-.6675,2.1149-.407,1.5585-.5937,3.2613,0,4.5253.3722.8161,1.0777,1.4456,2.2271,1.743Z"/>
        <path class="cls-2" d="M133.8376,28.5987c-1.0767.0738-1.8538.1107-2.5614-.4091-.1096-.1118-.2594-.2594-.407-.407,0-.4472.1867-.8162.407-1.1885.4461-.6685,1.1136-1.2611,1.4489-1.8537.5199-2.3357.0358-2.67-1.4489-3.7835l-.1834-.1846c-.6003-.1574-1.3274-.3711-1.8223-.2463-.1649.0424-1.7072.0445-1.9492.5339-.0857.1694-.2084.8282-.2941.9758-.2204.3712,1.3718.1378,1.9514.8486.5199.5579.7044.8553.7804,1.856-1.0398,1.5216-1.5955,2.0393-1.0029,4.1536-.4081.1476-1.1493.3342-1.9666.5926-1.7887.5969-2.2705.9377-2.7003,1.1591-.2583.1336-.6892.2149-.84.3083-.3094.1954-.4787.1433-2.9141.2387-.1856,0-.3311,0-.407.1129.0369.3343.1845.7033.407,1.0745.522.9269.7456.9454,1.8212,1.0941.1465-.0391,1.4435-.0706,1.6302-.1433,1.1818-.1346,2.1479-.7121,3.0031-.838,1.2243-.1866,2.5603-.1497,3.1898.3322.2214,1.0766-.5958,3.2288-1.0734,4.2664-.9659.9649-1.4858.5557-2.0795-.4797l-.0369-.077c-.3343-1.373-.5199-1.5955-1.5216-1.335-.3691,1.0387.077,2.633.1845,3.9311.4091,1.2243.484,2.0025,1.3371,2.5592.2594.1476.5199.2953.89.4461,1.6703-.2246,2.4843-.929,3.5968-2.4116l.0369-.0727c.1563-.1585.1845-.1389.1867-.2236,1.2253-2.3009,1.9655-4.4532,1.7061-7.1588.7413-.6295,3.3754-.6664,4.413-.4819.4081.2605,1.2113.3755,1.7691.8205,1.7399,0,3.166-2.6374,1.793-4.4922-2.7058-.7424-4.8591,0-7.3433.4829Z"/>
        <path class="cls-2" d="M120.335,21.797c.2974-1.7083.7413-4.006.0749-5.2313-.0391,0-.0391-.038-.0749-.038-1.7442-.4059-3.3364,3.3027-4.0039,4.6377-.5557,2.8175-.9648,4.006,2.1121,5.0457,1.2981-.3712,1.4099-2.1544,1.7062-3.4524.0369-.2963.1129-.6274.1856-.9617Z"/>
        <path class="cls-2" d="M11.6424,15.3404l-.0141.0238c-.0141.0218-.0271.0435-.0401.0673-.0739.1476-.3343.2974-.3712.4081-.0847.7358-.0608,1.2134.1389,1.5628.0098.0218.0217.0423.0347.0597.0087.012.0184.0228.0261.0337.051.0695.1064.1368.1715.1954.0629.0629.1345.1216.2127.1779.0162.0131.0303.0239.039.0293.0032.0022.0066.0043.0098.0066.0011.001.0054.0032.0054.0032h0c.2931.1986.7011.3701,1.2514.5622,1.6703-.5188,2.2271-2.2228,2.4496-4.0396-.4374-2.7301-2.9771-.6415-3.9137.9095h0Z"/>
      </g>
      <g>
        <path class="cls-1" d="M0,52.2883c0-.1314.0435-.1639.1096-.1639.1086,0,.1086.1639.153.3951.2626,1.387.8086,2.7751,2.4051,2.7751,1.1146,0,1.7484-.5676,1.7484-1.4098,0-2.2098-4.3727-1.1266-4.3727-3.8377,0-1.2894,1.0939-2.251,2.4496-2.251,1.0256,0,1.5747.4363,1.8798.4363.3831,0,.2192-.3072.4157-.3072.077,0,.1205.0347.1314.1986l.1953,2.0665c.0228.2062.0348.3061.0348.3603,0,.076-.0348.1085-.0868.1085-.1097,0-.1216-.2278-.2974-.6664-.4798-1.2112-1.0713-1.9351-2.2847-1.9351-.7771,0-1.3881.3386-1.3881,1.1711,0,1.7909,4.438.7966,4.438,3.7597,0,1.4554-1.2232,2.569-2.8751,2.569-1.082,0-1.5954-.5026-2.0208-.5026-.4277,0-.3614.3712-.5481.3712-.0542,0-.0868-.0217-.0868-.0988v-3.0388Z"/>
        <path class="cls-1" d="M7.7938,48.8456c0-.8759-.9399-.4493-.9399-.7554,0-.0868.0433-.141.2193-.141.5567,0,1.0809.0206,1.5184.0206s.9627-.0206,1.5194-.0206c.1748,0,.2193.0542.2193.141,0,.3061-.941-.1205-.941.7554v2.5147h2.8654v-2.5147c0-.8759-.9399-.4493-.9399-.7554,0-.0868.0433-.141.2181-.141.5568,0,1.0821.0206,1.5185.0206.4373,0,.9627-.0206,1.5194-.0206.1758,0,.2193.0542.2193.141,0,.3061-.9399-.1205-.9399.7554v5.6621c0,.8738.9399.4493.9399.7554,0,.0869-.0435.1411-.2193.1411-.5567,0-1.082-.0228-1.5194-.0228-.4363,0-.9617.0228-1.5185.0228-.1747,0-.2181-.0542-.2181-.1411,0-.3061.9399.1184.9399-.7554v-2.8848h-2.8654v2.8848c0,.8738.941.4493.941.7554,0,.0869-.0445.1411-.2193.1411-.5567,0-1.082-.0228-1.5194-.0228s-.9617.0228-1.5184.0228c-.1759,0-.2193-.0542-.2193-.1411,0-.3061.9399.1184.9399-.7554v-5.6621Z"/>
        <path class="cls-1" d="M16.9518,48.8456c0-.8759-.9377-.4493-.9377-.7554,0-.0868.0423-.141.2192-.141.5557,0,1.081.0206,1.5184.0206,1.3557,0,2.645-.0098,3.9344-.0206l.547,2.0871c.0445.1649.0661.2528.0661.2844,0,.0563-.0326.0868-.1096.0868-.0988,0-.0868-.1856-.5133-.8954-.5145-.852-1.2243-1.3024-2.5364-1.3024h-.5905v3.1508h.2735c.7663,0,1.322-.5687,1.3664-1.3567.0109-.2193.0435-.2735.153-.2735.0651,0,.1096.0542.1096.1541v3.3449c0,.0977-.0445.153-.1096.153-.1096,0-.1421-.0553-.153-.2745-.0445-.9725-.6001-1.4848-1.3664-1.4848h-.2735v2.7547c0,.5025.1976.7651.8965.7651,1.705,0,2.6243-1.2144,2.9629-2.2955.0661-.2106.0759-.3061.1758-.3061.0738,0,.1075.0542.1075.1194s-.0218.1976-.0423.317l-.4819,2.4268c-1.4425-.0109-2.8978-.0228-4.4163-.0228-.4373,0-.9627.0228-1.5184.0228-.1768,0-.2192-.0542-.2192-.1411,0-.3061.9377.1184.9377-.7554v-5.6621Z"/>
        <path class="cls-1" d="M25.1504,53.6981c0,.8748.3494,1.2352.6794,1.3784.3061.1324.5894.0238.5894.2084,0,.0651-.0228.1194-.153.1194-.3712,0-.7989-.0228-1.2471-.0228s-.8737.0228-1.246.0228c-.1303,0-.1541-.0542-.1541-.1194,0-.1846.2866-.076.5926-.2084.3267-.1433.6784-.5037.6784-1.3784v-4.7776c-.3625-.5242-.6686-.6664-1.018-.7109-.1747-.0206-.2529-.0206-.2529-.1399,0-.0879.0446-.1205.1325-.1205.3722,0,.776.0206,1.182.0206h1.2242l3.9137,4.9199h.0217v-3.2353c0-.8726-.3494-1.2352-.6772-1.3773-.3083-.1314-.5926-.0228-.5926-.2073,0-.0662.0217-.1205.154-.1205.3723,0,.7977.0206,1.2471.0206.4482,0,.8737-.0206,1.2471-.0206.1303,0,.1519.0542.1519.1205,0,.1845-.2844.0759-.5905.2073-.3289.1421-.6772.5047-.6772,1.3773v5.6307c0,.2062-.013.3603-.0977.3603-.0999,0-.178-.1314-.2757-.2637l-4.8102-6.1203h-.0217v4.4368Z"/>
        <path class="cls-1" d="M35.131,55.1427c1.246,0,2.01-.5806,2.4822-1.2579.4787-.6881.47-1.3437.6545-1.3437.0445,0,.0999.0304.0999.1194,0,.0651-.0337.2291-.0782.4386l-.4482,2.3052c-.8748-.0109-1.7702-.0228-2.6678-.0228-.8953,0-1.7919.0228-2.6883.0228-.0879,0-.1314-.0542-.1314-.0977,0-.0542.0435-.1325.1205-.2626l4.0787-6.8344h-.6577c-1.2123,0-1.9894.4504-2.5136,1.3024-.471.7652-.3831.8954-.5252.8954-.0651,0-.0869-.0305-.0869-.0868,0-.0316.0218-.1195.0651-.2844l.547-2.0871c.7869,0,1.5846.0206,2.3942.0206s1.6063-.0206,2.4377-.0206c.141,0,.1747.0326.1747.0857,0,.0553-.076.1747-.1639.33l-3.9907,6.7779h.8975Z"/>
        <path class="cls-1" d="M40.5859,48.8456c0-.8759-.942-.4493-.942-.7554,0-.0868.0435-.141.2193-.141.5567,0,1.082.0206,1.5205.0206.4363,0,.9606-.0206,1.5184-.0206.1758,0,.2182.0542.2182.141,0,.3061-.9388-.1205-.9388.7554v2.5147h2.8631v-2.5147c0-.8759-.9399-.4493-.9399-.7554,0-.0868.0445-.141.2182-.141.5589,0,1.0832.0206,1.5194.0206.4374,0,.9638-.0206,1.5206-.0206.1747,0,.2193.0542.2193.141,0,.3061-.941-.1205-.941.7554v5.6621c0,.8738.941.4493.941.7554,0,.0869-.0446.1411-.2193.1411-.5568,0-1.0832-.0228-1.5206-.0228-.4362,0-.9605.0228-1.5194.0228-.1737,0-.2182-.0542-.2182-.1411,0-.3061.9399.1184.9399-.7554v-2.8848h-2.8631v2.8848c0,.8738.9388.4493.9388.7554,0,.0869-.0423.1411-.2182.1411-.5578,0-1.082-.0228-1.5184-.0228-.4384,0-.9638.0228-1.5205.0228-.1758,0-.2193-.0542-.2193-.1411,0-.3061.942.1184.942-.7554v-5.6621Z"/>
        <path class="cls-1" d="M49.744,48.8456c0-.8759-.9399-.4493-.9399-.7554,0-.0868.0433-.141.2192-.141.5579,0,1.0833.0206,1.5185.0206,1.3567,0,2.6471-.0098,3.9364-.0206l.547,2.0871c.0423.1649.0651.2528.0651.2844,0,.0563-.0326.0868-.1085.0868-.1009,0-.089-.1856-.5145-.8954-.5145-.852-1.2254-1.3024-2.5375-1.3024h-.5905v3.1508h.2735c.7663,0,1.3241-.5687,1.3676-1.3567.0109-.2193.0435-.2735.1519-.2735.0673,0,.1096.0542.1096.1541v3.3449c0,.0977-.0422.153-.1096.153-.1085,0-.141-.0553-.1519-.2745-.0435-.9725-.6013-1.4848-1.3676-1.4848h-.2735v2.7547c0,.5025.1976.7651.8975.7651,1.7051,0,2.6233-1.2144,2.963-2.2955.0651-.2106.077-.3061.1747-.3061.0759,0,.1085.0542.1085.1194s-.0206.1976-.0433.317l-.4808,2.4268c-1.4436-.0109-2.8968-.0228-4.4173-.0228-.4352,0-.9606.0228-1.5185.0228-.1758,0-.2192-.0542-.2192-.1411,0-.3061.9399.1184.9399-.7554v-5.6621Z"/>
        <path class="cls-1" d="M57.9415,53.6981c0,.8748.3505,1.2352.6772,1.3784.3072.1324.5905.0238.5905.2084,0,.0651-.0207.1194-.1509.1194-.3733,0-.7987-.0228-1.2481-.0228-.4471,0-.8748.0228-1.2449.0228-.1314,0-.1541-.0542-.1541-.1194,0-.1846.2844-.076.5905-.2084.3289-.1433.6772-.5037.6772-1.3784v-4.7776c-.3592-.5242-.6675-.6664-1.0169-.7109-.1747-.0206-.2507-.0206-.2507-.1399,0-.0879.0445-.1205.1324-.1205.3702,0,.7761.0206,1.1798.0206h1.2242l3.9137,4.9199h.0207v-3.2353c0-.8726-.3484-1.2352-.6773-1.3773-.305-.1314-.5894-.0228-.5894-.2073,0-.0662.0218-.1205.153-.1205.3712,0,.7977.0206,1.246.0206s.8759-.0206,1.246-.0206c.1314,0,.153.0542.153.1205,0,.1845-.2844.0759-.5894.2073-.3277.1421-.6794.5047-.6794,1.3773v5.6307c0,.2062-.0098.3603-.0966.3603-.0999,0-.1758-.1314-.2735-.2637l-4.8113-6.1203h-.0217v4.4368Z"/>
        <path class="cls-1" d="M75.475,53.1185c0,1.6302-1.1157,2.4388-2.645,2.4388-1.705,0-2.799-.7869-2.799-1.9221v-4.7896c0-.8759-.9399-.4493-.9399-.7554,0-.0868.0433-.141.2193-.141.5567,0,1.0809.0206,1.5184.0206s.9627-.0206,1.5205-.0206c.1737,0,.2182.0542.2182.141,0,.3061-.9388-.1205-.9388.7554v4.7896c0,.8943.7413,1.5954,1.6486,1.5954,1.1483,0,1.9351-.7423,1.9351-2.0458v-3.3114c0-.9399-.3495-1.4771-.8531-1.641-.1628-.0553-.3266-.0651-.3266-.1628,0-.0662.0206-.1205.1519-.1205.2854,0,.7108.0206,1.1602.0206.4472,0,.8748-.0206,1.1581-.0206.1314,0,.153.0542.153.1205,0,.0977-.1649.1075-.3277.1628-.5015.1638-.8531.7011-.8531,1.641v3.2451Z"/>
        <path class="cls-1" d="M78.731,53.6981c0,.8748.3505,1.2352.6794,1.3784.304.1324.5905.0238.5905.2084,0,.0651-.0239.1194-.1541.1194-.3712,0-.7987-.0228-1.2481-.0228-.4472,0-.8727.0228-1.2449.0228-.1314,0-.153-.0542-.153-.1194,0-.1846.2843-.076.5904-.2084.3277-.1433.6794-.5037.6794-1.3784v-4.7776c-.3624-.5242-.6685-.6664-1.018-.7109-.1758-.0206-.2517-.0206-.2517-.1399,0-.0879.0433-.1205.1324-.1205.3712,0,.775.0206,1.1808.0206h1.2243l3.9126,4.9199h.0217v-3.2353c0-.8726-.3495-1.2352-.6762-1.3773-.3072-.1314-.5915-.0228-.5915-.2073,0-.0662.0217-.1205.153-.1205.3722,0,.7987.0206,1.246.0206.4482,0,.8748-.0206,1.247-.0206.1314,0,.152.0542.152.1205,0,.1845-.2833.0759-.5894.2073-.3289.1421-.6773.5047-.6773,1.3773v5.6307c0,.2062-.0119.3603-.0988.3603-.0987,0-.1758-.1314-.2735-.2637l-4.8113-6.1203h-.0217v4.4368Z"/>
        <path class="cls-1" d="M87.0283,48.8456c0-.8759-.9409-.4493-.9409-.7554,0-.0868.0433-.141.2192-.141.5568,0,1.0832.0206,1.5195.0206s.9616-.0206,1.5184-.0206c.1747,0,.2193.0542.2193.141,0,.3061-.9399-.1205-.9399.7554v5.6621c0,.8738.9399.4493.9399.7554,0,.0869-.0446.1411-.2193.1411-.5568,0-1.082-.0228-1.5184-.0228s-.9627.0228-1.5195.0228c-.1758,0-.2192-.0542-.2192-.1411,0-.3061.9409.1184.9409-.7554v-5.6621Z"/>
        <path class="cls-1" d="M96.3525,49.8604c.0868-.2159.1421-.4797.1421-.7206,0-1.0496-.941-.7977-.941-1.0701,0-.0553.0662-.1205.1867-.1205.3723,0,.7315.0206,1.1038.0206.3592,0,.7217-.0206,1.0939-.0206.2172,0,.3484.0423.3484.141,0,.3181-.8411-.1303-1.4869,1.4436l-2.3703,5.7728c-.0565.1303-.1096.2507-.1758.2507-.0651,0-.1194-.1205-.1747-.2507l-2.6341-6.3861c-.3832-.9171-1.0061-.6436-1.0061-.8629,0-.0542.0553-.1085.153-.1085.5578,0,1.0495.0206,1.552.0206.4927,0,.9941-.0206,1.4879-.0206.1954,0,.2616.0423.2616.1205,0,.2289-.7663-.0553-.7663.5252,0,.1519.0435.2953.089.4027l1.704,4.3728,1.4327-3.51Z"/>
        <path class="cls-1" d="M99.87,48.8456c0-.8759-.9388-.4493-.9388-.7554,0-.0868.0435-.141.2193-.141.5578,0,1.0809.0206,1.5184.0206,1.3555,0,2.6471-.0098,3.9354-.0206l.547,2.0871c.0445.1649.0661.2528.0661.2844,0,.0563-.0347.0868-.1096.0868-.0988,0-.0868-.1856-.5133-.8954-.5145-.852-1.2253-1.3024-2.5364-1.3024h-.5916v3.1508h.2746c.7641,0,1.322-.5687,1.3664-1.3567.0109-.2193.0435-.2735.153-.2735.064,0,.1086.0542.1086.1541v3.3449c0,.0977-.0446.153-.1086.153-.1096,0-.1421-.0553-.153-.2745-.0445-.9725-.6024-1.4848-1.3664-1.4848h-.2746v2.7547c0,.5025.1976.7651.8977.7651,1.705,0,2.6243-1.2144,2.9629-2.2955.0661-.2106.0749-.3061.1747-.3061.0749,0,.1086.0542.1086.1194s-.0228.1976-.0435.317l-.4808,2.4268c-1.4425-.0109-2.8968-.0228-4.4173-.0228-.4374,0-.9606.0228-1.5184.0228-.1758,0-.2193-.0542-.2193-.1411,0-.3061.9388.1184.9388-.7554v-5.6621Z"/>
        <path class="cls-1" d="M110.9111,52.6172c-.2616-.547-.7761-.7337-1.4088-.7337v2.6243c0,.8738.9399.4493.9399.7554,0,.0869-.0445.1411-.2192.1411-.5579,0-1.0833-.0228-1.5195-.0228-.4374,0-.9617.0228-1.5206.0228-.1747,0-.2182-.0542-.2182-.1411,0-.3061.9421.1184.9421-.7554v-5.6621c0-.8759-.9421-.4493-.9421-.7554,0-.0868.0435-.141.2182-.141.5589,0,1.0832.0206,1.5206.0206.547,0,1.0169-.0206,1.7386-.0206,1.869,0,2.8642.8324,2.8642,1.9459,0,.9182-.5698,1.6845-2.8208,1.9232v.0217c1.1699,0,1.8038.2844,2.2292,1.1027l.8205,1.5868c.4472.8639,1.1701.4493,1.1701.7554,0,.0651-.0131.1194-.1108.1194-.3929,0-.7857-.0228-1.1797-.0228h-1.1797l-1.3241-2.7643ZM109.5023,51.6881h.4254c1.2352,0,1.7821-.6131,1.7821-1.7712,0-1.2026-.5904-1.7073-1.5194-1.7073h-.6882v3.4785Z"/>
        <path class="cls-1" d="M115.5107,52.2883c0-.1314.0456-.1639.1107-.1639.1107,0,.1107.1639.154.3951.2627,1.387.8086,2.7751,2.403,2.7751,1.1167,0,1.7495-.5676,1.7495-1.4098,0-2.2098-4.3717-1.1266-4.3717-3.8377,0-1.2894,1.0918-2.251,2.4507-2.251,1.0245,0,1.5715.4363,1.8776.4363.3842,0,.2193-.3072.4168-.3072.076,0,.1194.0347.128.1986l.1987,2.0665c.0228.2062.0336.3061.0336.3603,0,.076-.0336.1085-.0868.1085-.1107,0-.1216-.2278-.2952-.6664-.4819-1.2112-1.0724-1.9351-2.2858-1.9351-.776,0-1.3881.3386-1.3881,1.1711,0,1.7909,4.438.7966,4.438,3.7597,0,1.4554-1.2232,2.569-2.875,2.569-1.0821,0-1.5966-.5026-2.022-.5026s-.3624.3712-.547.3712c-.0542,0-.0889-.0217-.0889-.0988v-3.0388Z"/>
        <path class="cls-1" d="M123.3066,48.8456c0-.8759-.942-.4493-.942-.7554,0-.0868.0445-.141.2192-.141.5579,0,1.0832.0206,1.5206.0206s.9605-.0206,1.5195-.0206c.1736,0,.2171.0542.2171.141,0,.3061-.9388-.1205-.9388.7554v5.6621c0,.8738.9388.4493.9388.7554,0,.0869-.0435.1411-.2171.1411-.559,0-1.0821-.0228-1.5195-.0228s-.9627.0228-1.5206.0228c-.1747,0-.2192-.0542-.2192-.1411,0-.3061.942.1184.942-.7554v-5.6621Z"/>
        <path class="cls-1" d="M129.4268,48.2325c-2.1641.5904-2.2748,2.2759-2.5244,2.2759-.0553,0-.0999-.0337-.0999-.1118,0-.0412.0228-.2171.0565-.3929l.3603-2.0003c.0326-.1628.0651-.2073.1205-.2073.0532,0,.0977.0326.1509.077.0563.0326.1324.0966.2865.0966h4.8981c.1519,0,.2279-.064.2833-.0966.0542-.0445.0977-.077.153-.077.0542,0,.0868.0445.1205.2073l.3592,2.0003c.0348.1758.0565.3516.0565.3929,0,.0781-.0445.1118-.1009.1118-.2496,0-.3603-1.6855-2.5245-2.2759v6.0572c0,.6999.3397.853.8759.853.1303,0,.1964.0315.1964.1423,0,.0868-.0542.1194-.1747.1194-.624,0-1.1797-.0228-1.6942-.0228-.5133,0-1.0713.0228-1.6953.0228-.1205,0-.1747-.0326-.1747-.1194,0-.1108.0651-.1423.1964-.1423.5362,0,.8748-.153.8748-.853v-6.0572Z"/>
        <path class="cls-1" d="M138.4329,51.6653l.853-1.5097c.2844-.5014.394-.992.394-1.2893,0-.7305-.6783-.623-.6783-.7966,0-.0662.0651-.1205.2192-.1205.3495,0,.6121.0206,1.0496.0206.3396,0,.6892-.0206,1.0169-.0206.076,0,.1194.0423.1194.1085,0,.2193-.5122-.0759-1.5519,1.6616l-1.2894,2.1555v2.633c0,.8738.9399.4493.9399.7554,0,.0869-.0445.1411-.2193.1411-.5578,0-1.0809-.0228-1.5194-.0228-.4363,0-.9617.0228-1.5195.0228-.1737,0-.2193-.0542-.2193-.1411,0-.3061.9421.1184.9421-.7554v-2.4268l-1.7604-3.2039c-.47-.8628-1.0832-.5785-1.0832-.8074,0-.0781.0661-.1205.1866-.1205.5362,0,1.0376.0206,1.552.0206s1.017-.0206,1.5314-.0206c.1618,0,.2399.0326.2399.1085,0,.2291-.6893-.0315-.6893.5785,0,.1867.0662.3614.1965.6133l1.2894,2.4159Z"/>
      </g>
    </g>
  </g>
</svg>